HIERARCHY
ROOT Hips
{
	OFFSET 0.000000 100.481300 0.000000
	CHANNELS 6 Xposition Yposition Zposition Xrotation Yrotation Zrotation 
	JOINT Spine
	{
		OFFSET -0.279200 12.230698 -2.892100
		CHANNELS 3 Xrotation Yrotation Zrotation
		JOINT Spine1
		{
			OFFSET -0.232667 10.192268 -1.242267
			CHANNELS 3 Xrotation Yrotation Zrotation
			JOINT Spine1_split
			{
				OFFSET -0.232667 10.192268 -1.242267
				CHANNELS 3 Xrotation Yrotation Zrotation
				JOINT Spine2
				{
					OFFSET -0.232667 10.192268 -1.242267
					CHANNELS 3 Xrotation Yrotation Zrotation
					JOINT Neck
					{
						OFFSET -0.418800 17.814194 8.416900
						CHANNELS 3 Xrotation Yrotation Zrotation
						JOINT Head
						{
							OFFSET 0.000000 7.031097 3.806800
							CHANNELS 3 Xrotation Yrotation Zrotation
							JOINT HeadTop_End
							{
								OFFSET 0.000000 24.646606 12.978600
								CHANNELS 3 Xrotation Yrotation Zrotation
								End Site
								{
									OFFSET 0.000000 0.000000 0.000000
								}
							}
						}
					}
					JOINT LeftShoulder
					{
						OFFSET 8.476499 7.247704 -3.868750
						CHANNELS 3 Xrotation Yrotation Zrotation
						JOINT LeftShoulder_split
						{
							OFFSET 8.476499 7.247704 -3.868750
							CHANNELS 3 Xrotation Yrotation Zrotation
							JOINT LeftArm
							{
								OFFSET 9.308998 -2.777710 0.208600
								CHANNELS 3 Xrotation Yrotation Zrotation
								JOINT LeftForeArm
								{
									OFFSET 29.972298 0.000000 0.000000
									CHANNELS 3 Xrotation Yrotation Zrotation
									JOINT LeftHand
									{
										OFFSET 26.026505 0.000000 0.000000
										CHANNELS 3 Xrotation Yrotation Zrotation
										JOINT LeftHandThumb1
										{
											OFFSET 12.240501 -7.147949 9.207150
											CHANNELS 3 Xrotation Yrotation Zrotation
											JOINT LeftHandThumb2
											{
												OFFSET 4.138618 -2.389435 2.389433
												CHANNELS 3 Xrotation Yrotation Zrotation
												JOINT LeftHandThumb3
												{
													OFFSET 2.726913 -1.574387 1.574386
													CHANNELS 3 Xrotation Yrotation Zrotation
													JOINT LeftHandThumb4
													{
														OFFSET 3.941010 -2.275345 2.275342
														CHANNELS 3 Xrotation Yrotation Zrotation
														End Site
														{
															OFFSET 0.000000 0.000000 0.000000
														}
													}
												}
											}
										}
										JOINT LeftHandIndex1
										{
											OFFSET 24.424698 -1.985611 5.953459
											CHANNELS 3 Xrotation Yrotation Zrotation
											JOINT LeftHandIndex2
											{
												OFFSET 6.426697 0.000000 0.000000
												CHANNELS 3 Xrotation Yrotation Zrotation
												JOINT LeftHandIndex3
												{
													OFFSET 5.337898 0.000000 0.000000
													CHANNELS 3 Xrotation Yrotation Zrotation
													JOINT LeftHandIndex4
													{
														OFFSET 4.409401 0.000000 0.000000
														CHANNELS 3 Xrotation Yrotation Zrotation
														End Site
														{
															OFFSET 0.000000 0.000000 0.000000
														}
													}
												}
											}
										}
										JOINT LeftHandMiddle1
										{
											OFFSET 23.810104 0.000000 0.000000
											CHANNELS 3 Xrotation Yrotation Zrotation
											JOINT LeftHandMiddle2
											{
												OFFSET 7.176498 0.000000 0.000000
												CHANNELS 3 Xrotation Yrotation Zrotation
												JOINT LeftHandMiddle3
												{
													OFFSET 6.774902 0.000000 0.000000
													CHANNELS 3 Xrotation Yrotation Zrotation
													JOINT LeftHandMiddle4
													{
														OFFSET 5.403328 0.000000 0.000000
														CHANNELS 3 Xrotation Yrotation Zrotation
														End Site
														{
															OFFSET 0.000000 0.000000 0.000000
														}
													}
												}
											}
										}
										JOINT LeftHandRing1
										{
											OFFSET 22.908401 -0.839279 -6.020567
											CHANNELS 3 Xrotation Yrotation Zrotation
											JOINT LeftHandRing2
											{
												OFFSET 6.337502 0.000000 0.000000
												CHANNELS 3 Xrotation Yrotation Zrotation
												JOINT LeftHandRing3
												{
													OFFSET 5.779297 0.000000 0.000000
													CHANNELS 3 Xrotation Yrotation Zrotation
													JOINT LeftHandRing4
													{
														OFFSET 4.965698 0.000000 0.000000
														CHANNELS 3 Xrotation Yrotation Zrotation
														End Site
														{
															OFFSET 0.000000 0.000000 0.000000
														}
													}
												}
											}
										}
										JOINT LeftHandPinky1
										{
											OFFSET 20.037003 -1.530319 -10.950146
											CHANNELS 3 Xrotation Yrotation Zrotation
											JOINT LeftHandPinky2
											{
												OFFSET 5.254700 0.000000 0.000000
												CHANNELS 3 Xrotation Yrotation Zrotation
												JOINT LeftHandPinky3
												{
													OFFSET 4.810204 0.000000 0.000000
													CHANNELS 3 Xrotation Yrotation Zrotation
													JOINT LeftHandPinky4
													{
														OFFSET 3.647202 0.000000 0.000000
														CHANNELS 3 Xrotation Yrotation Zrotation
														End Site
														{
															OFFSET 0.000000 0.000000 0.000000
														}
													}
												}
											}
										}
									}
								}
							}
						}
					}
					JOINT RightShoulder
					{
						OFFSET -7.570500 7.247704 -3.868750
						CHANNELS 3 Xrotation Yrotation Zrotation
						JOINT RightShoulder_split
						{
							OFFSET -7.570500 7.247704 -3.868750
							CHANNELS 3 Xrotation Yrotation Zrotation
							JOINT RightArm
							{
								OFFSET -9.308998 -2.777710 0.208500
								CHANNELS 3 Xrotation Yrotation Zrotation
								JOINT RightForeArm
								{
									OFFSET -29.972300 0.000000 0.000000
									CHANNELS 3 Xrotation Yrotation Zrotation
									JOINT RightHand
									{
										OFFSET -26.026505 0.000000 0.000000
										CHANNELS 3 Xrotation Yrotation Zrotation
										JOINT RightHandThumb1
										{
											OFFSET -12.240601 -7.148026 9.207092
											CHANNELS 3 Xrotation Yrotation Zrotation
											JOINT RightHandThumb2
											{
												OFFSET -4.138618 -2.389435 2.389433
												CHANNELS 3 Xrotation Yrotation Zrotation
												JOINT RightHandThumb3
												{
													OFFSET -2.726974 -1.574417 1.574421
													CHANNELS 3 Xrotation Yrotation Zrotation
													JOINT RightHandThumb4
													{
														OFFSET -3.941010 -2.275345 2.275343
														CHANNELS 3 Xrotation Yrotation Zrotation
														End Site
														{
															OFFSET 0.000000 0.000000 0.000000
														}
													}
												}
											}
										}
										JOINT RightHandIndex1
										{
											OFFSET -24.424698 -1.985657 5.953444
											CHANNELS 3 Xrotation Yrotation Zrotation
											JOINT RightHandIndex2
											{
												OFFSET -6.426697 0.000000 0.000000
												CHANNELS 3 Xrotation Yrotation Zrotation
												JOINT RightHandIndex3
												{
													OFFSET -5.337898 0.000000 0.000000
													CHANNELS 3 Xrotation Yrotation Zrotation
													JOINT RightHandIndex4
													{
														OFFSET -4.409401 0.000000 0.000000
														CHANNELS 3 Xrotation Yrotation Zrotation
														End Site
														{
															OFFSET 0.000000 0.000000 0.000000
														}
													}
												}
											}
										}
										JOINT RightHandMiddle1
										{
											OFFSET -23.810097 0.000000 0.000000
											CHANNELS 3 Xrotation Yrotation Zrotation
											JOINT RightHandMiddle2
											{
												OFFSET -7.176498 0.000000 0.000000
												CHANNELS 3 Xrotation Yrotation Zrotation
												JOINT RightHandMiddle3
												{
													OFFSET -6.774902 0.000000 0.000000
													CHANNELS 3 Xrotation Yrotation Zrotation
													JOINT RightHandMiddle4
													{
														OFFSET -5.403328 0.000000 0.000000
														CHANNELS 3 Xrotation Yrotation Zrotation
														End Site
														{
															OFFSET 0.000000 0.000000 0.000000
														}
													}
												}
											}
										}
										JOINT RightHandRing1
										{
											OFFSET -22.908302 -0.839325 -6.020576
											CHANNELS 3 Xrotation Yrotation Zrotation
											JOINT RightHandRing2
											{
												OFFSET -6.337502 0.000000 0.000000
												CHANNELS 3 Xrotation Yrotation Zrotation
												JOINT RightHandRing3
												{
													OFFSET -5.779297 0.000000 0.000000
													CHANNELS 3 Xrotation Yrotation Zrotation
													JOINT RightHandRing4
													{
														OFFSET -4.965698 0.000000 0.000000
														CHANNELS 3 Xrotation Yrotation Zrotation
														End Site
														{
															OFFSET 0.000000 0.000000 0.000000
														}
													}
												}
											}
										}
										JOINT RightHandPinky1
										{
											OFFSET -20.037003 -1.530334 -10.950259
											CHANNELS 3 Xrotation Yrotation Zrotation
											JOINT RightHandPinky2
											{
												OFFSET -5.254700 0.000000 0.000000
												CHANNELS 3 Xrotation Yrotation Zrotation
												JOINT RightHandPinky3
												{
													OFFSET -4.810204 0.000000 0.000000
													CHANNELS 3 Xrotation Yrotation Zrotation
													JOINT RightHandPinky4
													{
														OFFSET -3.647202 0.000000 0.000000
														CHANNELS 3 Xrotation Yrotation Zrotation
														End Site
														{
															OFFSET 0.000000 0.000000 0.000000
														}
													}
												}
											}
										}
									}
								}
							}
						}
					}
				}
			}
		}
	}
	JOINT LeftUpLeg
	{
		OFFSET 15.427100 -6.655098 0.678600
		CHANNELS 3 Xrotation Yrotation Zrotation
		JOINT LeftLeg
		{
			OFFSET 4.081073 -39.591068 13.024000
			CHANNELS 3 Xrotation Yrotation Zrotation
			JOINT LeftFoot
			{
				OFFSET -4.081074 -37.707932 -15.979700
				CHANNELS 3 Xrotation Yrotation Zrotation
				JOINT LeftToeBase
				{
					OFFSET 5.346399 -15.068900 20.645000
					CHANNELS 3 Xrotation Yrotation Zrotation
					JOINT LeftToe_End
					{
						OFFSET 2.754700 0.931300 11.300900
						CHANNELS 3 Xrotation Yrotation Zrotation
						End Site
						{
							OFFSET 0.000000 0.000000 0.000000
						}
					}
				}
			}
		}
	}
	JOINT RightUpLeg
	{
		OFFSET -15.569500 -6.655098 0.678600
		CHANNELS 3 Xrotation Yrotation Zrotation
		JOINT RightLeg
		{
			OFFSET -4.081825 -39.591045 13.023800
			CHANNELS 3 Xrotation Yrotation Zrotation
			JOINT RightFoot
			{
				OFFSET 4.081824 -37.707954 -15.979600
				CHANNELS 3 Xrotation Yrotation Zrotation
				JOINT RightToeBase
				{
					OFFSET -5.346400 -15.068900 20.645000
					CHANNELS 3 Xrotation Yrotation Zrotation
					JOINT RightToe_End
					{
						OFFSET -2.754700 0.931300 11.300900
						CHANNELS 3 Xrotation Yrotation Zrotation
						End Site
						{
							OFFSET 0.000000 0.000000 0.000000
						}
					}
				}
			}
		}
	}
}
MOTION
Frames: 4
Frame Time: 0.016667
8.145529 87.119003 114.898689 23.823041 24.059353 -8.581409 11.234982 -0.257013 3.207120 6.689001 -2.739667 0.561831 0.000000 0.000000 0.000000 6.767280 -2.647712 0.806086 -7.061414 0.651888 3.401816 -21.911030 3.055704 1.503040 -0.000000 0.000001 -0.000001 1.518825 -7.209065 -6.123054 0.000000 0.000000 0.000000 -29.320899 -21.016004 -35.448467 -0.000002 -29.544946 0.000019 -8.273330 6.667486 0.376797 -4.818360 -0.388130 0.088359 7.450107 23.644281 2.310959 -5.513975 12.822085 16.414970 -0.000001 -0.000000 0.000004 1.392518 -4.289622 -18.514954 0.313199 1.891582 -18.800948 0.005716 0.259012 -2.528356 -0.000002 0.000001 -0.000000 0.814287 5.226587 -29.279921 0.451073 2.256133 -22.609641 0.005068 0.243921 -2.380993 0.000001 0.000000 0.000001 3.703739 9.279074 -35.643834 0.291104 1.825438 -18.119672 0.391952 2.108674 -21.057270 -0.000000 0.000002 -0.000001 -8.001709 17.864353 -33.635540 0.395801 2.118640 -21.161569 0.592480 2.569199 -25.967795 0.000001 -0.000000 -0.000003 2.382972 6.831226 2.707436 0.000000 0.000000 0.000000 -16.474821 -9.604016 53.071615 0.000017 62.536590 -0.000012 -3.641328 3.447572 -8.284694 -8.636252 11.618381 -0.482691 7.832942 -27.003846 -3.053102 -3.237871 -28.163850 -19.305132 -0.000001 -0.000001 -0.000005 9.241547 2.977005 1.678351 0.692440 -2.445339 31.616546 0.581283 -2.254945 28.905886 0.000003 0.000001 -0.000001 0.172069 -3.349955 13.232750 0.583240 -2.258518 28.956071 0.454348 -2.008172 25.494490 -0.000004 -0.000001 0.000001 1.536015 -6.518368 24.725599 0.620947 -2.325330 29.898969 0.622260 -2.327584 29.931228 0.000001 0.000000 -0.000003 -5.391447 -16.960651 33.120847 0.696245 -2.451516 31.705694 0.539900 -2.178411 27.836332 0.000001 -0.000001 0.000001 -42.275575 6.579108 14.607145 45.557392 7.628310 -6.237867 -5.043856 30.385408 -5.435549 -2.346837 0.211615 -5.138253 0.000000 0.000000 -0.000000 -52.283377 -4.046606 -5.701701 36.574253 -6.815101 -4.881253 -4.499598 -6.622843 7.050861 -0.776290 0.000001 -0.000002 0.000000 -0.000000 -0.000000 
8.403054 88.827164 116.708710 24.014931 24.847007 -8.826542 10.991410 0.247414 3.107867 6.739195 -2.514401 0.541702 0.000000 0.000000 0.000000 6.813278 -2.447949 0.778875 -6.528695 0.281439 2.942687 -23.266315 1.506242 1.300733 0.000001 0.000001 0.000000 1.571535 -7.049210 -6.199193 0.000000 0.000000 0.000000 -27.840548 -21.494301 -35.479486 0.000005 -28.581690 -0.000010 -5.965536 5.303743 -2.777248 -4.821594 -0.408743 0.104044 7.450106 23.644281 2.310955 -5.513974 12.822088 16.414968 -0.000001 -0.000003 -0.000001 1.410548 -4.236786 -19.058284 0.332464 1.947238 -19.376229 0.004598 0.232295 -2.267372 0.000001 -0.000000 0.000000 0.825880 5.247077 -29.510485 0.442712 2.235966 -22.396282 0.001681 0.140374 -1.369964 0.000001 -0.000001 0.000001 3.686994 9.272159 -35.517544 0.258884 1.723911 -17.079346 0.330392 1.941339 -19.315261 0.000001 0.000001 0.000000 -8.021502 17.813847 -33.080269 0.333923 1.951382 -19.419158 0.492506 2.353073 -23.639987 0.000000 -0.000000 0.000000 2.412582 6.644247 2.840668 0.000000 0.000000 0.000000 -17.278003 -10.440145 53.740065 0.000022 64.466925 -0.000041 -4.319503 3.303191 -8.566001 -8.559270 11.392673 -0.383848 7.832947 -27.003848 -3.053100 -3.240557 -28.121492 -19.296732 0.000001 0.000001 0.000000 9.265301 2.897258 4.050153 0.831876 -2.658382 34.747751 0.743575 -2.526430 32.795317 0.000002 -0.000001 -0.000002 0.218733 -3.531515 15.536816 0.689722 -2.440929 31.552701 0.608805 -2.304076 29.598225 -0.000001 0.000001 0.000001 1.695760 -6.638565 26.794586 0.720467 -2.490249 32.267286 0.744753 -2.528270 32.822051 -0.000002 -0.000000 0.000001 -5.286613 -17.043262 35.032375 0.792372 -2.600542 33.886334 0.697005 -2.452725 31.723264 0.000002 0.000003 -0.000001 -42.991557 6.738619 13.527408 41.491528 7.817404 -6.205481 -1.577163 30.652110 -6.246872 -2.436557 0.201937 -5.046788 -0.000000 -0.000000 -0.000000 -48.889575 -4.426281 -5.396912 33.609664 -6.663118 -4.834549 -4.926193 -7.611760 6.855411 -0.776289 -0.000003 -0.000002 -0.000000 -0.000000 0.000000 
8.644105 90.298279 118.500717 24.176168 25.712121 -9.041951 10.734435 0.720828 3.007554 6.787120 -2.287292 0.523223 0.000000 0.000000 0.000000 6.856944 -2.249063 0.744096 -6.145211 0.029306 2.502974 -24.587534 -0.208405 0.944949 -0.000000 -0.000001 0.000000 1.618575 -6.835511 -6.264181 0.000000 0.000000 0.000000 -26.441479 -21.915697 -35.489642 -0.000000 -27.829486 -0.000000 -4.158954 3.707714 -5.268068 -4.822754 -0.415826 0.109416 7.450106 23.644281 2.310953 -5.513977 12.822087 16.414971 -0.000001 -0.000001 -0.000000 1.429683 -4.182430 -19.619249 0.359072 2.021273 -20.144840 0.004117 0.219652 -2.143948 -0.000001 0.000000 0.000001 0.838480 5.269139 -29.759363 0.446238 2.244496 -22.486511 0.000232 0.051790 -0.505366 -0.000000 -0.000000 -0.000004 3.688295 9.275105 -35.508610 0.236545 1.649483 -16.320421 0.281218 1.794961 -17.806807 0.000000 0.000001 -0.000001 -8.038790 17.773817 -32.635614 0.284470 1.805061 -17.910387 0.408350 2.150749 -21.498468 0.000000 0.000000 -0.000000 2.446332 6.435829 2.980741 0.000000 0.000000 0.000000 -17.981416 -11.167552 54.420591 0.000002 66.639526 -0.000019 -4.845012 3.164064 -9.542827 -8.466660 11.117450 -0.246924 7.832946 -27.003848 -3.053099 -3.242691 -28.088274 -19.290172 -0.000001 -0.000001 0.000000 9.295339 2.878068 6.343594 0.977329 -2.856439 37.770345 0.917035 -2.776972 36.543465 -0.000000 -0.000001 -0.000001 0.270625 -3.704754 17.759733 0.799802 -2.611567 34.049927 0.757827 -2.548424 33.117419 -0.000001 0.000001 0.000000 1.852706 -6.746799 28.783476 0.815911 -2.635203 34.401583 0.850297 -2.684687 35.142621 0.000002 0.000002 0.000001 -5.180602 -17.111960 36.727348 0.873728 -2.717626 35.639688 0.835493 -2.663558 34.825294 -0.000000 -0.000002 -0.000002 -43.396652 6.824610 12.781170 37.752498 8.576812 -6.220102 1.968567 30.832331 -8.242091 -2.025822 0.167813 -4.634732 0.000001 -0.000000 0.000000 -45.732928 -4.924662 -5.147807 30.945992 -6.457867 -4.789586 -5.412324 -8.545235 6.594529 -0.776293 0.000000 -0.000002 -0.000000 -0.000000 0.000000 
8.912346 91.492760 120.148697 24.276260 26.636326 -9.273358 10.465777 1.179492 2.891218 6.831997 -2.056075 0.504973 0.000000 0.000000 0.000000 6.898566 -2.042592 0.728348 -5.916533 -0.334471 1.914442 -25.874864 -1.918016 0.673790 -0.000002 -0.000001 -0.000000 1.646209 -6.617207 -6.320245 0.000000 0.000000 0.000000 -25.016650 -22.020554 -35.430230 0.000001 -27.294799 0.000008 -2.639173 2.137414 -7.461873 -4.821886 -0.409569 0.104699 7.450107 23.644283 2.310959 -5.513973 12.822089 16.414971 -0.000000 -0.000003 -0.000002 1.449926 -4.126688 -20.196328 0.393220 2.111960 -21.091672 0.004087 0.219064 -2.138252 -0.000001 0.000000 -0.000000 0.852131 5.292780 -30.026673 0.460309 2.278168 -22.843146 0.000030 -0.018553 0.181056 -0.000000 0.000000 -0.000001 3.705305 9.286610 -35.601835 0.223618 1.604728 -15.865437 0.243319 1.672438 -16.554246 0.000001 0.000001 0.000002 -8.053291 17.745675 -32.316562 0.246345 1.682587 -16.657581 0.338953 1.965587 -19.566392 0.000001 0.000001 -0.000004 2.483101 6.243178 3.110968 0.000000 0.000000 0.000000 -18.599619 -11.797026 55.140435 -0.000033 68.895340 0.000053 -5.221352 2.918467 -10.687381 -8.360230 10.798180 -0.075892 7.832946 -27.003846 -3.053104 -3.244278 -28.063506 -19.285254 -0.000001 -0.000000 0.000005 9.320955 2.929883 8.482594 1.121872 -3.033568 40.583078 1.092420 -2.998888 40.023273 -0.000000 -0.000001 -0.000002 0.324893 -3.863882 19.826975 0.908261 -2.765109 36.361905 0.882575 -2.729909 35.825872 -0.000005 -0.000001 0.000001 2.000287 -6.840054 30.623484 0.900142 -2.754056 36.193309 0.924657 -2.787205 36.700229 0.000003 0.000001 -0.000001 -5.078697 -17.159233 38.110953 0.930542 -2.795078 36.821072 0.933366 -2.798845 36.879255 -0.000001 0.000001 -0.000001 -44.108986 6.964717 12.001415 34.437926 8.635967 -6.117646 4.951819 30.730865 -10.493070 -2.692207 0.106701 -2.196868 0.000000 0.000000 -0.000000 -42.868699 -5.527040 -4.940295 28.670112 -6.183541 -4.753574 -5.930787 -9.455048 6.341779 -0.776293 0.000002 0.000002 -0.000000 0.000000 0.000000 
